<svg t="1628426364841" class="h-5 w-5" viewBox="0 0 1024 1024" version="1.1" xmlns="http://www.w3.org/2000/svg" p-id="1618" fill="currentColor">
<path d="M786.041 157.916c12.236 9.466 24.383 18.923 34.822 29.878 7.156 7.499 46.555 14.042 81.053 13.13 26.828-0.713 50.994-9.015 53.964-6.091 10.729 10.513-63.475 77.317-45.22 112.97 76.713 149.77 65.469 336.709-44.262 478.493-151.322 195.513-432.742 231.247-628.443 79.79C42.262 714.628 6.266 433.226 157.597 237.705 308.919 42.188 590.348 6.458 786.041 157.916z m130.539 61.263c-46.445 7.978-79.717 5.342-120.369-10.458-60.082-23.345-171.672-106.257-221.096-30.835-27.486 41.943-18.229 330.898-18.814 424.693-63.79-52.402-127.924-97.721-212.811-91.097-98.704 7.706-192.652 91.638-158.388 201.956 49.37 158.92 325.375 185.161 390.175 39.723 16.632-37.322 12.229-76.758 16.396-116.229l29.428-279.967c4.765-29.761 9.674-41.555 26.25-66.768 120.877 53.097 207.19 76.505 269.229-71.018z" p-id="1619"></path>
</svg>