<svg t="1628426701628" class="h-5 w-5" viewBox="0 0 1024 1024" version="1.1" xmlns="http://www.w3.org/2000/svg"  fill="currentColor">
<path d="M828.8 565.76a259.84 259.84 0 0 1-177.92 160c-91.52 29.12-48 128 34.56 102.72 192-54.08 306.24-200 306.24-391.36C992 288 906.88 192 774.72 192s-215.04 79.68-215.04 203.52c0 177.28 167.68 219.52 269.12 170.24z m-527.68 0a259.84 259.84 0 0 1-177.92 160c-89.92 28.8-49.92 128 34.56 102.72 192-54.08 306.56-200 306.56-391.36C464.32 288 378.88 192 247.04 192S32 271.68 32 395.52c0 176.64 166.72 219.84 269.12 170.24z" ></path>
</svg>